<?xml version="1.0" standalone="no"?><!DOCTYPE svg PUBLIC "-//W3C//DTD SVG 1.1//EN" "http://www.w3.org/Graphics/SVG/1.1/DTD/svg11.dtd"><svg t="1715325230793" class="icon" viewBox="0 0 1024 1024" version="1.1" xmlns="http://www.w3.org/2000/svg" p-id="9093" xmlns:xlink="http://www.w3.org/1999/xlink" width="200" height="200"><path d="M512 1024C229.248 1024 0 794.752 0 512S229.248 0 512 0s512 229.248 512 512-229.248 512-512 512z" fill="#3E66BB" p-id="9094"></path><path d="M675.114667 662.784a24.448 24.448 0 0 1-17.322667-41.856l107.818667-107.818667-107.52-107.52a24.533333 24.533333 0 1 1 34.688-34.645333l124.842666 124.842667a24.533333 24.533333 0 0 1 0 34.645333l-125.141333 125.184a24.448 24.448 0 0 1-17.365333 7.168z m-324.906667 0a24.448 24.448 0 0 1-17.322667-7.168l-125.184-125.184a24.533333 24.533333 0 0 1 0-34.645333l124.842667-124.842667a24.533333 24.533333 0 1 1 34.688 34.688l-107.52 107.477333 107.818667 107.818667a24.533333 24.533333 0 0 1-17.322667 41.856zM450.986667 768a24.618667 24.618667 0 0 1-23.68-30.890667l124.032-462.933333a24.533333 24.533333 0 0 1 47.36 12.714667l-124.032 462.933333a24.533333 24.533333 0 0 1-23.68 18.176z" fill="#FFFFFF" p-id="9095"></path></svg>